<svg width="88" height="89" viewBox="0 0 88 89" fill="none" xmlns="http://www.w3.org/2000/svg">
<path d="M68.5197 30.039C60.6772 26.2728 52.8447 22.4865 45.0147 18.6977C44.3424 18.3722 43.7326 18.3797 43.0628 18.7278C41.7932 19.3864 40.4936 19.9874 39.2015 20.6059C32.6161 23.7711 26.0282 26.9364 19.4428 30.1041C18.778 30.4246 18.5356 30.968 18.5381 31.6992C18.5531 39.9604 18.5731 48.2241 18.5331 56.4853C18.5281 57.7173 18.928 58.416 20.0526 58.9493C27.4128 62.4451 34.7604 65.971 42.0731 69.5694C43.4202 70.233 44.4673 70.3081 45.8744 69.612C53.2795 65.9409 60.7496 62.395 68.2098 58.8391C69.1595 58.3859 69.5244 57.7674 69.5119 56.7181C69.4669 52.5863 69.4944 48.457 69.4944 44.3251C69.4994 44.3251 69.5019 44.3251 69.5069 44.3251C69.5069 40.1006 69.4969 35.8762 69.5144 31.6492C69.5194 30.8704 69.2369 30.3821 68.5197 30.039ZM43.5376 21.4473C43.82 21.3121 44.06 21.2019 44.4074 21.3747C47.2165 22.7544 50.0406 24.1067 52.8722 25.4765C52.6597 25.807 52.3373 25.8646 52.0649 25.9973C45.6495 29.0949 39.2315 32.1825 32.826 35.2977C32.2312 35.5857 31.7614 35.5807 31.1766 35.2877C28.6899 34.0406 26.1807 32.8411 23.679 31.6241C23.489 31.5315 23.3016 31.4313 23.0717 31.3111C29.9295 28.0081 36.7348 24.7277 43.5376 21.4473ZM42.7054 66.9025C38.6867 64.9693 34.7729 63.0862 30.8592 61.2031C27.8901 59.7732 24.9286 58.3283 21.9495 56.9185C21.4272 56.6706 21.2347 56.3751 21.2372 55.7841C21.2597 48.6798 21.2597 41.5756 21.2397 34.4688C21.2372 33.7451 21.3047 33.5173 22.077 33.8954C28.7323 37.1407 35.4002 40.3536 42.0706 43.5664C42.4455 43.7467 42.7229 43.8719 42.7204 44.4078C42.6979 51.8551 42.7054 59.3049 42.7054 66.9025ZM43.6451 41.2951C40.841 39.9279 38.0319 38.5731 35.0878 37.1458C36.7548 36.3394 38.2993 35.5932 39.8438 34.847C45.0197 32.3553 50.2005 29.8712 55.3664 27.3571C55.9037 27.0966 56.3036 27.1117 56.8309 27.3746C59.5 28.6993 62.1917 29.9764 65.0383 31.3512C61.6394 32.9914 58.4404 34.5364 55.2414 36.079C51.7575 37.7593 48.2711 39.4396 44.7847 41.1173C44.4273 41.2901 44.0875 41.5105 43.6451 41.2951ZM66.3704 56.7582C59.4476 60.0812 52.5298 63.4167 45.6095 66.7447C45.5595 66.7698 45.492 66.7597 45.3421 66.7773C45.3421 59.2749 45.3471 51.8301 45.3296 44.3852C45.3296 43.9595 45.497 43.7817 45.8269 43.624C52.6247 40.3586 59.4251 37.0932 66.2129 33.8077C66.7352 33.5548 66.8377 33.645 66.8377 34.1909C66.8277 41.4479 66.8277 48.7049 66.8402 55.9619C66.8377 56.355 66.7377 56.5829 66.3704 56.7582Z" fill="#1C1C1C"/>
<path d="M87.521 38.0622C87.0312 34.5564 86.094 31.1758 84.7744 27.8979C84.427 27.0315 83.7347 26.6884 83.0074 26.9614C82.2927 27.2293 81.9978 27.9831 82.2827 28.832C82.3626 29.0674 82.4751 29.2902 82.5651 29.5231C85.919 38.4103 86.2889 47.4277 83.5523 56.5178C78.5863 73.0126 63.9335 84.7019 46.794 85.8338C38.3717 86.3897 30.4642 84.5316 23.144 80.2796C19.8401 78.3589 16.8585 76.0225 14.0444 73.0551C16.9185 73.3631 19.5526 73.6336 22.1843 73.9366C23.259 74.0618 23.9887 73.6686 24.1062 72.8122C24.2112 72.061 23.6488 71.4124 22.6692 71.3047C18.7954 70.879 14.9191 70.4709 11.0404 70.0902C9.89822 69.9775 9.46086 70.4158 9.3409 71.5476C9.12347 73.566 8.88104 75.5818 8.65861 77.6001C8.44868 79.4933 8.23375 81.3889 8.05881 83.2871C7.97633 84.1685 8.50866 84.8271 9.26092 84.8972C9.9657 84.9623 10.5555 84.4415 10.6755 83.5876C10.8129 82.5984 10.9179 81.6043 11.0279 80.6101C11.2453 78.6669 11.4552 76.7262 11.6677 74.783C12.04 74.7905 12.1425 75.0559 12.305 75.2187C23.4489 86.267 36.7772 90.6367 52.2072 87.8922C64.0935 85.7787 73.503 79.4933 80.2933 69.5043C86.7462 60.0035 89.1155 49.4686 87.521 38.0622Z" fill="#1C1C1C"/>
<path d="M5.37475 59.3C2.24324 50.9762 1.84837 42.5072 4.09265 33.9155C9.14355 14.586 27.7676 1.53442 47.6213 3.36495C56.521 4.18631 64.356 7.49929 71.1388 13.3189C72.151 14.1853 73.1207 15.0994 74.0779 16.1887C73.1407 16.086 72.3384 15.9958 71.5337 15.9082C69.5493 15.6928 67.5674 15.4575 65.5806 15.2696C64.6634 15.1845 64.0436 15.6703 63.9486 16.4366C63.8561 17.1803 64.3959 17.7763 65.3082 17.889C66.6077 18.0517 67.9098 18.1945 69.2119 18.3372C71.7836 18.6227 74.3553 18.9257 76.9295 19.1786C78.1466 19.2963 78.5689 18.9157 78.7114 17.7112C78.9513 15.6953 79.1837 13.677 79.4037 11.6587C79.6161 9.70293 79.8285 7.74469 79.991 5.78395C80.0635 4.91251 79.5661 4.34407 78.8139 4.27145C78.0666 4.19632 77.4818 4.69966 77.3818 5.54606C77.1819 7.25138 77.0044 8.96171 76.8095 10.6695C76.6645 11.9466 76.5046 13.2213 76.3446 14.5434C76.1797 14.4483 76.1172 14.4283 76.0747 14.3882C65.4306 3.50017 52.5572 -1.06488 37.472 0.998532C28.1425 2.27314 20.0026 6.28979 13.3647 12.9483C2.0533 24.2946 -2.0279 37.9897 0.928662 53.7633C1.37602 56.1523 2.14328 58.4611 3.013 60.7324C3.39538 61.734 4.06016 62.0971 4.8774 61.7866C5.61467 61.5086 5.87959 60.7499 5.56718 59.8284C5.5072 59.6506 5.44222 59.4753 5.37475 59.3Z" fill="#1C1C1C"/>
<path d="M35.4126 47.1824C33.2583 46.1407 31.099 45.114 28.9422 44.0848C28.6623 43.9521 28.3899 43.7893 27.8675 43.8218C27.4377 43.8644 26.9753 44.1824 26.8154 44.7759C26.6229 45.4996 26.9178 46.0605 27.6001 46.3911C29.8094 47.4629 32.0187 48.5346 34.233 49.5964C35.2402 50.0797 36.0049 49.8894 36.3798 49.088C36.7322 48.3293 36.4073 47.6657 35.4126 47.1824Z" fill="#1C1C1C"/>
</svg>
